<svg width="24" height="24" xmlns="http://www.w3.org/2000/svg" fill-rule="evenodd" clip-rule="evenodd"><path d="M6.994 15.026v-1.833c-.004-1.295-.168-2.66 2.502-3.268 1.01-.229 2.395-.544 2.622-1.046.024-.051.095-.209-.106-.582-1.431-2.638-1.698-4.965-.754-6.552.65-1.092 1.834-1.719 3.248-1.719 1.403 0 2.579.618 3.228 1.694.943 1.568.684 3.902-.731 6.573-.198.376-.125.535-.101.587.231.502 1.571.808 2.647 1.053 2.77.631 2.416 2.236 2.451 3.279v3.958c0 .49-.201.977-.609 1.356-1.378 1.28-4.453 4.026-4.935 4.467-.749.687-1.518 1.006-2.421 1.006-.405 0-.832-.065-1.308-.2-2.773-.783-4.484-1.036-5.727-1.105v1.332h-5v-9h4.994zm-.994 1h-3v7h3v-7zm1 5.664c2.092.118 4.405.696 5.999 1.147.817.231 1.761.354 2.782-.581 1.279-1.172 2.722-2.413 4.929-4.463.824-.765-.178-1.783-1.022-1.113 0 0-2.961 2.299-3.689 2.843-.379.285-.695.519-1.148.519-.36 0-2.232-.467-3.104-.743-.575-.183-.371-.993.268-.858.447.093 1.594.35 2.201.52 1.017.281 1.276-.867.422-1.152-.562-.19-.537-.198-1.889-.665-1.301-.451-2.214-.753-3.585-.156-.639.278-1.432.616-2.164.814v3.888zm14.006-6.066v-2.422c.008-1.858-.269-1.972-1.679-2.294-1.49-.34-2.898-.66-3.334-1.611-.201-.438-.158-.933.126-1.472 1.244-2.349 1.513-4.334.757-5.59-.469-.779-1.31-1.209-2.37-1.209-1.068 0-1.916.437-2.389 1.23-.757 1.272-.482 3.248.774 5.565.291.537.338 1.032.138 1.471-.432.955-1.897 1.287-3.312 1.608-1.402.321-1.724.415-1.717 2.297v3.2l.765-.325c.642-.28 1.259-.417 1.887-.417 1.214 0 2.205.499 4.303 1.205.64.214 1.076.716 1.175 1.306 1.124-.863 2.92-2.257 2.937-2.27.357-.284.773-.434 1.2-.434.262 0 .513.058.739.162z"/></svg>